<?xml version="1.0" encoding="utf-8"?>
<!-- Generator: Adobe Illustrator 24.2.1, SVG Export Plug-In . SVG Version: 6.00 Build 0)  -->
<svg version="1.1" id="Слой_1" xmlns="http://www.w3.org/2000/svg" xmlns:xlink="http://www.w3.org/1999/xlink" x="0px" y="0px"
	 viewBox="0 0 1249 594" style="enable-background:new 0 0 1249 594;" xml:space="preserve">
<style type="text/css">
	.st0{fill:#FAFAFA;}
	.st1{fill:#F9AC15;}
</style>
<g>
	<g>
		<path d="M-656-393c853.3,0,1706.7,0,2560,0c0,459.7,0,919.3,0,1379c-853.3,0-1706.7,0-2560,0C-656,526.3-656,66.7-656-393z
			 M593.7,50.9c10.4,23.8,21.9,47,33.1,70.5c51.4,108,103.6,215.5,155.4,323.3c2.7,5.5,5.4,11,7.8,15.9c75.1,0,149.5,0,224.5,0
			c-5.7-12.4-11.1-24.1-16.6-36c-61.5,0-122.6,0-183.7,0c-0.9-1.9-1.6-3.3-2.4-4.8c-30.2-62.5-60.4-125.1-90.5-187.6
			c-29.1-60.3-58.1-120.6-87.2-180.9c2.2-0.1,4.3-0.4,6.5-0.4c56.5,0,112.9,0,169.4-0.1c1.8,0,4,0.9,5.8-1.2
			c-5.3-11.6-10.7-23.2-16-34.6c-74.7,0-148.9,0-223.9,0C582,27.2,587.1,39.4,593.7,50.9z M245,206c-5.2-6.7-10.3-13.5-15.7-20
			c-25.4-30.2-53.1-58.3-79.8-87.4c-24.2-26.4-49.7-51.5-72.7-79c-4.3-5.2-9.1-6.6-14.7-4C52.5,20.1,44.9,26.8,40,36.5
			c-2.4,4.8-2.3,9.2,0.6,13.7c3,4.6,6.4,9,10.2,12.9c21.2,22.1,42.3,44.3,63.8,66.2c12.1,12.4,23.8,25.1,35.4,38
			c10.4,11.6,18.8,13.1,33.2,7.3c0.9-0.4,1.8-0.7,3.2-1.2c14.7,17,29.3,34,44.3,51.3c-1.8,2.4-3.3,4.7-5.2,6.8
			c-8.6,9.9-17.3,19.8-26,29.7c-16,18.3-31.9,36.7-50.8,52.2c-42.6,34.9-85.2,69.8-127.9,104.7c-6.2,5.1-10.1,11.4-11.7,19.2
			c-3.4,16.7,8.3,27.3,24.5,22.3c6.8-2.1,12.8-5.6,18.5-9.7c26.2-19.2,50.3-41.1,75.2-61.8c15.8-13.1,30.8-27.1,44-42.8
			c24.6-29.3,48.2-59.5,72.3-89.3c1.7-2.2,3.1-4.7,5.7-6.3c5.6,3.7,10.1,8.4,14.3,13.3c0.2,0.4,0.4,0.9,0.6,1.3l-0.2,0.2
			c0,0,0.2,0.2,0.2,0.2c0.5,3,1.2,5.9,1.5,8.9c0.6,5.6,2,11.6-0.5,16.8c-5.7,12.3-5.9,25.2-5.1,38.2c1.9,29.8,9.7,58.1,21.8,85.2
			c4,9,9.1,17.4,16.3,24.4c8.5,8.2,18,10.1,28.9,5.2c6.3-2.8,12-6.5,17.2-11c1-0.9,1.8-2.6,3.6-2c4.7,19,14.5,28.7,29.5,29.6
			c14.3,0.8,27-7.2,31.9-20.2c5.8-15.1,1-27.2-16.4-40.9c10-8.7,15.2-19.3,12.2-32.7c-3-13.5-12.2-21.2-25.7-24.9
			c8.5-10.5,11.2-21.8,6.2-34c-5-12.4-15-18.6-28.1-20c5.4-19.4,3.5-30.6-7.4-39.7c-10.3-8.6-22.1-10.7-34-4.6
			c-17.7,8.9-21.3,24.1-15.7,42.6c-3.9-0.5-6.9-0.9-9.7-2.6c-0.5-2.2-1-4.3-1.6-6.4c1.8-1.5,4.3,0.2,6.3-1.4c0.5-2.5,0.6-5.1-0.2-8
			c-2.8-0.2-5.6-0.4-8.4-0.6c-3.4-18.4-11.1-35.5-16.1-53.4c0.6-1,1.1-1.9,1.6-2.8c26.5-46.3,51.8-93.1,74.9-141.1
			c7.4-15.3,14.7-30.6,19.3-47.1c0.6-2.2,1.7-4.6,0.2-7.2c-2.8,2-4.3,4.6-5.9,7.1c-11.3,16.7-21.1,34.3-31.8,51.4
			c-22.5,35.8-42.6,73.1-67.2,107.6C256.1,189.4,250.6,197.8,245,206z M1239.1,460.4c-72.4-149.6-144.2-298.1-215.7-445.9
			c-14.3,0-27.5,0-40.9,0c-49.7,102.9-99.2,205.5-148.7,307.9c6.7,13.9,13.3,27.5,20.4,42.1c49.7-103,98.8-204.9,148.5-307.9
			c65.4,135.5,130.3,269.9,194.9,403.7C1211.6,460.4,1224.7,460.4,1239.1,460.4z M722.7,460.7C649.3,312.3,579.3,163.1,505.5,14.7
			c-7.7,15.6-15,30.4-22.3,45.2c31.5,64,62.8,127.7,94.6,192.2c-48.9,0-96.7,0-144.9,0c-6.2,12.6-12.3,24.9-18.7,37.9
			c60.8,0,120.7,0,181.1,0c28.1,57.1,54.9,114.4,83.9,170.7C693.5,460.7,707.6,460.7,722.7,460.7z M390.2,577.1
			c13.6,0,26.8,0,39.9,0c2.3,0,4.7,0.1,7-0.2c3-0.4,5.9-0.8,8.8-1.7c8.5-2.5,12.4-7.8,12.7-16.4c0.3-8.9-3-13.9-11.4-17.2
			c-0.9-0.4-2-0.4-2.3-2.4c2.7-1.8,6-3.7,7.4-7.5c4-11.1-1.7-21.3-14.2-23c-15.8-2.1-31.8-0.5-47.9-0.9
			C390.2,531.2,390.2,553.9,390.2,577.1z M9,507.8c0,23.5,0,46.2,0,69c16.3,0,32.2,0,48.2,0c2,0,4-0.5,5.9-1
			c9.3-2.4,13.9-7.8,14.3-16.8c0.4-9.4-3.3-14.5-12.7-17.8c-0.7-0.3-1.7-0.2-2.1-1.7c5.3-2.1,9-5.6,9.5-11.8
			c1-11-4.7-18.1-16.7-19.3C39.9,507,24.6,508.2,9,507.8z M1066.3,578.6c6-0.1,11.9-0.7,17.8-2.3c16.8-4.5,26.4-16.3,26.7-32.9
			c0.3-17.1-8.7-29.4-25.5-34.3c-13.4-3.9-27-3.6-40.3,0.9c-14.3,4.9-22.4,16.5-22.6,31.9c-0.2,15.7,7.3,27.1,21.5,32.7
			C1051.1,577.5,1058.7,578.4,1066.3,578.6z M310.1,546.9c1.9-0.6,3-1,4-1.3c9.4-3.3,13.5-9.1,13.1-18.8
			c-0.4-9.2-5.1-14.7-14.6-17.1c-2.9-0.7-5.9-1.4-8.8-1.5c-9.1-0.3-18.3-0.3-27.5-0.3c-4.4,0-8.9-0.5-13.5,0.4c0,22.9,0,45.6,0,68.4
			c2.2,0.5,4.1,0.8,6.6-0.4c0-9.3,0-18.9,0-28.7c11.7,0,22.8,0,34.1,0c7.4,9.8,14.7,19.6,22,29.3c2.6,0.1,4.9,0.6,7.4-0.5
			C325.4,566.7,318,557,310.1,546.9z M643.9,547.6c11.7,0,22.9,0,34.1,0c7.4,9.9,14.8,19.8,22.2,29.7c2.5-0.6,4.8,0.5,7.2-0.9
			c-7.5-9.7-14.9-19.3-22.6-29.2c3-1.2,4.9-2,6.9-2.9c4-1.7,7-4.5,8.6-8.6c4.7-12.2-0.8-23.3-13.6-26.1c-16.3-3.6-32.8-0.9-49.5-1.8
			c0,23.4,0,46.1,0,69c2.2,0.5,4.3,0.8,6.6-0.3C643.9,567,643.9,557.5,643.9,547.6z M525.5,571.2c0-9.5,0-18.2,0-27.5
			c16.2,0,32.1,0,48.4,0c0.1-2.2,0.8-4-0.8-6.2c-15.6,0-31.5,0-47.6,0c0-8.1,0-15.6,0-23.6c17.1,0,33.9,0,50.5,0
			c0.8-2.2,1-3.9-0.1-5.7c-18.9,0-37.9,0-57.1,0c0,23,0,45.7,0,68.7c19.4,0,38.7,0,58,0c0.6-1.9,0.7-3.7-0.3-5.7
			C559.7,571.2,542.8,571.2,525.5,571.2z M893.7,537.3c0-9.9,0-19.4,0-29c-2.5-0.5-4.4-1-6.3,0.2c0,22.8,0,45.5,0,68.6
			c2.3-0.3,4.2,0.5,6.5-0.8c0-10.7,0-21.4,0-32.3c20.8,0,41.2,0,62,0c0,11.2,0,21.9,0,32.7c2.3,0.5,4.3,0.7,6.2-0.1
			c0-22.8,0-45.5,0-68.2c-2.2-0.6-4.1-0.8-6.5,0.4c0,9.4,0,18.9,0,28.6C934.8,537.3,914.6,537.3,893.7,537.3z M1177.8,576.8
			c0-8.8,0-17.2,0-26c7.5,0,14.5,0,21.5,0c8,0,16,0.4,23.9-1.7c10.4-2.8,15.7-9.3,15.7-19.7c0-10.7-5.2-17.3-16-19.9
			c-2.7-0.7-5.6-1.3-8.4-1.4c-14-0.2-28-0.2-42-0.3c-0.4,0-0.9,0.4-1.3,0.6c0,22.8,0,45.6,0,68.4c1.3,0.1,2.3,0.2,3.3,0.2
			C1175.3,577.1,1176.1,577,1177.8,576.8z M762.6,573.9c14,4.5,27.8,5.7,41.8,3.9c6-0.8,11.8-2.3,16.7-6.1c7.8-6,7.9-16.6,0.3-22.8
			c-2.6-2.1-5.6-3.6-8.7-4.8c-9.3-3.7-19.2-5.4-28.8-8.2c-4.2-1.2-8.3-2.5-11.8-5.1c-5.1-3.9-5-10.1,0.2-13.8
			c2.2-1.6,4.7-2.5,7.3-3.1c8.9-1.9,17.8-1.8,26.8-0.4c4.9,0.7,9.4,2.7,14.3,3.7c0.3-2.5,0.6-4.5-0.3-6.7c-2.3-0.6-4.7-1.2-7.1-1.7
			c-13.5-2.7-27.1-3.8-40.4,1c-6.4,2.3-10.9,6.5-11.2,13.8c-0.3,7,4.1,11,9.7,13.8c6.7,3.4,14.1,5,21.4,6.8c6.9,1.7,14,3,20.5,6.4
			c4,2.1,7.4,4.8,7.1,9.9c-0.3,5-3.8,7.5-8,9.3c-5.3,2.2-11,2.6-16.7,2.7c-11.3,0.2-22.4-0.7-33.1-6.2
			C762.6,569.3,762.6,571.4,762.6,573.9z M162.8,508c-12.1,23-24,45.7-36,68.7c2.7,0.6,4.7,0.6,6.8,0c3-5.6,6.1-11.3,9.3-17.1
			c15.8,0,31.4,0,47.3,0c3.2,5.7,6.3,11.5,9.7,17.6c2.1-0.5,4.2,0.6,6.3-0.9c-12.1-23-24.1-45.8-35.9-68.3
			C167.6,508,165.4,508,162.8,508z"/>
		<path class="st0" d="M1239.1,460.4c-14.4,0-27.5,0-41.5,0c-64.6-133.8-129.5-268.2-194.9-403.7c-49.7,103-98.8,204.9-148.5,307.9
			c-7.1-14.6-13.6-28.2-20.4-42.1c49.5-102.5,99-205,148.7-307.9c13.4,0,26.6,0,40.9,0C1094.9,162.4,1166.7,310.8,1239.1,460.4z"/>
		<path class="st0" d="M722.7,460.7c-15,0-29.1,0-43.5,0c-28.9-56.2-55.8-113.6-83.9-170.7c-60.4,0-120.2,0-181.1,0
			c6.4-13.1,12.5-25.4,18.7-37.9c48.2,0,96,0,144.9,0c-31.7-64.5-63.1-128.2-94.6-192.2c7.3-14.8,14.6-29.6,22.3-45.2
			C579.3,163.1,649.3,312.3,722.7,460.7z"/>
		<path class="st1" d="M286.9,266.8c2.8,0.2,5.6,0.4,8.4,0.6c0.8,2.9,0.7,5.5,0.2,8c-2,1.6-4.5-0.1-6.3,1.4
			c-2.5-2.9-6.2-1.6-9.2-2.6c-6-2.1-10.4-6.5-15.9-9.4l-0.2-0.2c0,0,0.2-0.2,0.2-0.2c-0.7-0.2-0.9-0.6-0.6-1.3
			c-4.2-4.9-8.7-9.6-14.3-13.3c-2.6,1.6-4,4.1-5.7,6.3c-24,29.8-47.7,60-72.3,89.3c-13.1,15.7-28.2,29.7-44,42.8
			c-25,20.7-49,42.6-75.2,61.8c-5.7,4.1-11.7,7.6-18.5,9.7c-16.2,5-27.9-5.6-24.5-22.3c1.6-7.8,5.5-14.1,11.7-19.2
			c42.7-34.8,85.3-69.8,127.9-104.7c18.9-15.5,34.7-34,50.8-52.2c8.7-9.9,17.4-19.7,26-29.7c1.8-2.1,3.4-4.4,5.2-6.8
			c-14.9-17.3-29.6-34.3-44.3-51.3c-1.4,0.5-2.3,0.8-3.2,1.2c-14.3,5.7-22.8,4.3-33.2-7.3c-11.6-12.9-23.3-25.6-35.4-38
			C93.2,107.4,72,85.2,50.8,63.1c-3.8-4-7.2-8.3-10.2-12.9c-2.9-4.5-3-8.9-0.6-13.7c4.8-9.7,12.5-16.3,22.1-20.8
			c5.5-2.6,10.4-1.2,14.7,4c22.9,27.5,48.5,52.7,72.7,79c26.7,29.1,54.4,57.2,79.8,87.4c5.5,6.5,10.5,13.3,15.7,20
			c1.8-0.4,3.6-0.7,5.2-1.4c7.2-3.2,12.8-0.2,17.5,4.1c2.8,8.6-1.8,15.1-4.5,21.9C257.1,246.1,270.1,266.3,286.9,266.8z"/>
		<path class="st0" d="M634.1,51.1c29.1,60.3,58.1,120.6,87.2,180.9c30.2,62.6,60.3,125.1,90.5,187.6c0.7,1.5,1.5,3,2.4,4.8
			c61.1,0,122.2,0,183.7,0c5.5,11.9,10.9,23.6,16.6,36c-75.1,0-149.4,0-224.5,0c-2.4-4.9-5.1-10.4-7.8-15.9
			c-51.9-107.7-104.1-215.3-155.4-323.3c-11.1-23.4-22.7-46.7-33.1-70.5C607.1,50.9,620.6,51,634.1,51.1z"/>
		<path class="st0" d="M264.1,264.8c5.4,2.9,9.8,7.3,15.9,9.4c3.1,1,6.8-0.3,9.2,2.6c0.5,2.1,1,4.2,1.6,6.4c2.8,1.8,5.8,2.1,9.7,2.6
			c-5.7-18.6-2-33.7,15.7-42.6c12-6,23.8-4,34,4.6c10.9,9.1,12.9,20.3,7.4,39.7c13.1,1.4,23,7.6,28.1,20c5,12.2,2.3,23.5-6.2,34
			c13.5,3.7,22.6,11.3,25.7,24.9c3,13.4-2.2,24-12.2,32.7c17.4,13.7,22.2,25.8,16.4,40.9c-5,13-17.6,21-31.9,20.2
			c-15.1-0.9-24.8-10.6-29.5-29.6c-1.9-0.6-2.6,1.1-3.6,2c-5.2,4.5-10.9,8.2-17.2,11c-10.9,4.8-20.4,3-28.9-5.2
			c-7.2-7-12.3-15.4-16.3-24.4c-12.2-27.1-20-55.4-21.8-85.2c-0.8-13-0.6-25.9,5.1-38.2c2.4-5.2,1-11.2,0.5-16.8
			C265.3,270.7,264.6,267.7,264.1,264.8z M344.8,397.5c-3.5-30.5-13-61.3-33.8-87.9c-3.7-4.8-8.2-8.9-13.9-11.2
			c-7.1-2.9-13.9-2.8-20,2.9c-6.8,6.4-8.5,12.3-5.5,20.5c9.4,26.2,18.8,52.3,28.2,78.5c2.9,8.1,5.7,16.3,8.8,24.4
			c3.5,9.3,9.5,11.8,18.6,8c7.5-3.2,12.3-8.9,15-16.5C344.2,411,344.6,405.6,344.8,397.5z M350.9,271.8c0-12-9.6-21.7-21.5-21.7
			c-11.7,0-21.3,9.6-21.4,21.3c-0.1,12,9.5,21.7,21.5,21.6C341.3,293,350.8,283.5,350.9,271.8z M356.3,297.9
			c-11.7,0-21.3,9.5-21.3,21.3c-0.1,11.9,9.7,21.7,21.5,21.6c11.7-0.1,21.3-9.7,21.4-21.3C377.9,307.5,368.3,297.9,356.3,297.9z
			 M401.1,428.6c0-11.8-9.3-21.4-21.1-21.5c-11.8-0.2-21.7,9.6-21.8,21.4c0,11.9,9.7,21.5,21.7,21.4
			C391.8,449.9,401.1,440.5,401.1,428.6z M374.5,394.3c11.8-0.1,21.2-9.5,21.2-21.3c0-11.8-10-21.8-21.7-21.6
			c-11.9,0.2-21.3,10-21.1,22C353.1,385.3,362.5,394.4,374.5,394.3z"/>
		<path class="st1" d="M634.1,51.1c-13.5-0.1-26.9-0.1-40.4-0.2c-6.6-11.5-11.7-23.6-17.8-36.1c75,0,149.2,0,223.9,0
			c5.3,11.5,10.7,23.1,16,34.6c-1.8,2.1-3.9,1.2-5.8,1.2c-56.5,0.1-112.9,0.1-169.4,0.1C638.4,50.7,636.2,50.9,634.1,51.1z"/>
		<path class="st0" d="M286.9,266.8c-16.8-0.4-29.9-20.6-23.7-36.2c2.7-6.8,7.2-13.3,4.5-21.9c-4.8-4.3-10.3-7.2-17.5-4.1
			c-1.6,0.7-3.5,0.9-5.2,1.4c5.6-8.2,11.2-16.6,17-24.7c24.6-34.5,44.7-71.8,67.2-107.6c10.7-17.1,20.5-34.7,31.8-51.4
			c1.7-2.5,3.2-5.1,5.9-7.1c1.5,2.6,0.4,5-0.2,7.2c-4.6,16.4-11.9,31.8-19.3,47.1c-23.1,48-48.5,94.8-74.9,141.1
			c-0.5,0.9-1,1.7-1.6,2.8C275.9,231.2,283.5,248.4,286.9,266.8z"/>
		<path class="st0" d="M390.2,577.1c0-23.3,0-46,0-69.3c16.2,0.4,32.1-1.2,47.9,0.9c12.4,1.7,18.1,11.8,14.2,23
			c-1.4,3.8-4.7,5.7-7.4,7.5c0.3,2,1.4,2.1,2.3,2.4c8.4,3.3,11.7,8.3,11.4,17.2c-0.3,8.5-4.3,13.8-12.7,16.4
			c-2.8,0.9-5.8,1.3-8.8,1.7c-2.3,0.3-4.7,0.2-7,0.2C417,577.2,403.8,577.1,390.2,577.1z M396.8,571.2c11.7,0,23.1,0.1,34.6,0
			c3.1,0,6.3-0.5,9.4-0.8c1-0.1,2-0.4,2.9-0.7c5.7-1.9,8.1-5.2,8.2-11.1c0.2-8.4-4.3-13.4-13.9-14.3c-13.4-1.3-27-0.5-40.4-0.4
			c-0.3,0-0.5,0.4-0.8,0.6C396.8,553.2,396.8,561.9,396.8,571.2z M396.8,537.7c9,0,17.5,0,25.9,0c4.7,0,9.3,0.2,13.9-0.9
			c7.4-1.7,10.3-5,10.2-11.4c-0.1-6.1-2.9-9.4-10.3-10.6c-11.1-1.8-22.2-0.5-33.4-0.8c-2.1-0.1-4.3-0.7-6.3,0.6
			C396.8,522.1,396.8,529.5,396.8,537.7z"/>
		<path class="st0" d="M9,507.8c15.7,0.3,31-0.8,46.2,0.6c12,1.1,17.7,8.2,16.7,19.3c-0.5,6.1-4.2,9.7-9.5,11.8
			c0.4,1.6,1.4,1.5,2.1,1.7c9.4,3.3,13.1,8.4,12.7,17.8c-0.4,8.9-5,14.4-14.3,16.8c-1.9,0.5-3.9,1-5.9,1c-16,0.1-31.9,0-48.2,0
			C9,554.1,9,531.3,9,507.8z M15.5,571.1c13.2,0,25.8,0,38.4,0c2.1,0,4.3-0.4,6.4-0.8c8.4-1.8,12.1-8.1,9.8-16.4
			c-1.9-6.7-7.2-8.9-13.2-9.6c-10.3-1.2-20.6-0.4-30.9-0.6c-3.4-0.1-6.9,0-10.5,0C15.5,553.1,15.5,561.8,15.5,571.1z M15.5,537.7
			c13.3-0.5,26.4,0.8,39.4-0.9c1.3-0.2,2.6-0.6,3.8-1.1c4.1-1.6,6.4-4.5,6.5-9c0.2-7-2.1-10.5-9.3-11.8c-13.3-2.3-26.8-0.5-40.4-1.1
			C15.5,522,15.5,529.5,15.5,537.7z"/>
		<path class="st0" d="M1066.3,578.6c-7.7-0.2-15.2-1.1-22.5-4c-14.1-5.5-21.7-17-21.5-32.7c0.2-15.4,8.3-27,22.6-31.9
			c13.3-4.6,26.8-4.8,40.3-0.9c16.9,4.9,25.9,17.2,25.5,34.3c-0.3,16.6-9.9,28.4-26.7,32.9C1078.3,577.9,1072.3,578.5,1066.3,578.6z
			 M1066.9,572.5c7.7,0,15.3-0.8,22.3-4.3c11.1-5.4,15.2-14.8,15-26.6c-0.2-11.7-5-20.8-16.1-25.3c-14.3-5.7-29-5.7-43.3,0.3
			c-10.8,4.5-15.5,13.5-15.7,25c-0.2,11.8,4,21.1,15,26.5C1051.2,571.7,1059,572.5,1066.9,572.5z"/>
		<path class="st0" d="M310.1,546.9c7.8,10.2,15.3,19.8,22.9,29.6c-2.5,1.1-4.8,0.6-7.4,0.5c-7.3-9.7-14.7-19.5-22-29.3
			c-11.3,0-22.4,0-34.1,0c0,9.8,0,19.3,0,28.7c-2.5,1.2-4.4,0.9-6.6,0.4c0-22.7,0-45.4,0-68.4c4.6-1,9.1-0.4,13.5-0.4
			c9.2,0,18.3,0,27.5,0.3c3,0.1,5.9,0.7,8.8,1.5c9.5,2.3,14.2,7.9,14.6,17.1c0.4,9.6-3.6,15.5-13.1,18.8
			C313.1,545.9,312.1,546.2,310.1,546.9z M269.5,541c7.4,1.4,35.6,0.7,42-1c6-1.6,8.7-4.8,9.2-10.9c0.6-7.9-2.8-12.4-11-14
			c-10.4-2-20.9-1-31.4-1.1c-2.9,0-5.9-0.6-8.8,0.5C269.5,523.5,269.5,532.3,269.5,541z"/>
		<path class="st0" d="M643.9,547.6c0,9.9,0,19.4,0,28.8c-2.3,1.1-4.4,0.9-6.6,0.3c0-22.8,0-45.6,0-69c16.6,0.9,33.2-1.8,49.5,1.8
			c12.8,2.8,18.3,13.9,13.6,26.1c-1.6,4.1-4.6,6.9-8.6,8.6c-2,0.8-3.9,1.6-6.9,2.9c7.7,10,15,19.5,22.6,29.2
			c-2.4,1.4-4.7,0.3-7.2,0.9c-7.4-9.9-14.8-19.8-22.2-29.7C666.8,547.6,655.6,547.6,643.9,547.6z M644,541.7
			c13.6-0.4,26.9,1,40.1-1.4c7.8-1.4,10.9-5.1,11-12.4c0-7.3-3-11.3-10.7-12.7c-13.3-2.5-26.8-0.8-40.3-1.3
			C644,523.4,644,532.4,644,541.7z"/>
		<path class="st0" d="M525.5,571.2c17.3,0,34.2,0,51,0c1,2.1,0.9,3.8,0.3,5.7c-19.3,0-38.5,0-58,0c0-23,0-45.7,0-68.7
			c19.2,0,38.1,0,57.1,0c1.2,1.7,1,3.4,0.1,5.7c-16.6,0-33.4,0-50.5,0c0,8,0,15.6,0,23.6c16,0,32,0,47.6,0c1.5,2.2,0.8,3.9,0.8,6.2
			c-16.2,0-32.2,0-48.4,0C525.5,553,525.5,561.7,525.5,571.2z"/>
		<path class="st0" d="M893.7,537.3c20.8,0,41.1,0,61.9,0c0-9.6,0-19.2,0-28.6c2.4-1.2,4.3-1,6.5-0.4c0,22.7,0,45.5,0,68.2
			c-2,0.9-3.9,0.6-6.2,0.1c0-10.8,0-21.5,0-32.7c-20.8,0-41.1,0-62,0c0,10.9,0,21.6,0,32.3c-2.3,1.2-4.3,0.5-6.5,0.8
			c0-23.1,0-45.8,0-68.6c1.9-1.2,3.8-0.7,6.3-0.2C893.7,517.9,893.7,527.4,893.7,537.3z"/>
		<path class="st0" d="M1177.8,576.8c-1.7,0.2-2.5,0.3-3.3,0.3c-1,0-2-0.1-3.3-0.2c0-22.8,0-45.6,0-68.4c0.4-0.2,0.9-0.6,1.3-0.6
			c14,0,28,0.1,42,0.3c2.8,0,5.6,0.7,8.4,1.4c10.8,2.6,16,9.2,16,19.9c0,10.4-5.3,16.9-15.7,19.7c-7.9,2.1-15.9,1.6-23.9,1.7
			c-7,0-14,0-21.5,0C1177.8,559.6,1177.8,568,1177.8,576.8z M1177.8,544.7c12.3,0,24.2,0.1,36.2,0c2.5,0,5-0.4,7.4-1
			c7.5-1.9,10.8-6.8,10.6-15.3c-0.1-7.5-3.4-11.9-10.9-13.3c-14.3-2.6-28.8-0.8-43.3-1.3C1177.8,524.5,1177.8,534.4,1177.8,544.7z"
			/>
		<path class="st0" d="M762.6,573.9c0-2.5,0-4.6,0-7.7c10.7,5.6,21.8,6.5,33.1,6.2c5.7-0.1,11.3-0.5,16.7-2.7c4.2-1.7,7.7-4.3,8-9.3
			c0.3-5.1-3.1-7.8-7.1-9.9c-6.4-3.3-13.5-4.7-20.5-6.4c-7.3-1.8-14.6-3.4-21.4-6.8c-5.6-2.8-10-6.8-9.7-13.8
			c0.4-7.3,4.9-11.5,11.2-13.8c13.3-4.9,26.9-3.7,40.4-1c2.4,0.5,4.8,1.1,7.1,1.7c0.8,2.2,0.5,4.2,0.3,6.7c-4.9-1.1-9.5-3-14.3-3.7
			c-9-1.3-17.9-1.5-26.8,0.4c-2.6,0.6-5.1,1.5-7.3,3.1c-5.2,3.7-5.3,10-0.2,13.8c3.5,2.7,7.7,3.9,11.8,5.1
			c9.6,2.8,19.5,4.5,28.8,8.2c3.1,1.2,6.1,2.7,8.7,4.8c7.6,6.2,7.4,16.8-0.3,22.8c-4.9,3.8-10.7,5.3-16.7,6.1
			C790.4,579.6,776.6,578.4,762.6,573.9z"/>
		<path class="st0" d="M162.8,508c2.6,0,4.7,0,7.5,0c11.8,22.5,23.8,45.3,35.9,68.3c-2.1,1.5-4.2,0.4-6.3,0.9
			c-3.3-6.1-6.5-11.9-9.7-17.6c-16,0-31.5,0-47.3,0c-3.2,5.8-6.2,11.5-9.3,17.1c-2.1,0.6-4.1,0.6-6.8,0
			C138.9,553.8,150.8,531.1,162.8,508z M187,553.2c-6.9-13.2-13.3-25.6-20.3-39.1c-7.1,13.5-13.6,26-20.4,39.1
			C160.1,553.2,173,553.2,187,553.2z"/>
		<path class="st0" d="M263.5,263.1c-0.3,0.7-0.1,1.1,0.6,1.3C263.9,263.9,263.7,263.5,263.5,263.1z"/>
		<path d="M344.8,397.5c-0.2,8.1-0.6,13.5-2.5,18.8c-2.7,7.6-7.6,13.3-15,16.5c-9.1,3.9-15,1.3-18.6-8c-3.1-8.1-5.9-16.3-8.8-24.4
			c-9.4-26.2-18.8-52.3-28.2-78.5c-3-8.3-1.3-14.2,5.5-20.5c6-5.6,12.8-5.8,20-2.9c5.7,2.3,10.2,6.4,13.9,11.2
			C331.8,336.2,341.3,367,344.8,397.5z"/>
		<path d="M350.9,271.8c0,11.7-9.6,21.2-21.4,21.2c-11.9,0-21.6-9.6-21.5-21.6c0.1-11.7,9.7-21.3,21.4-21.3
			C341.3,250.1,350.9,259.9,350.9,271.8z"/>
		<path d="M356.3,297.9c11.9,0,21.6,9.7,21.6,21.6c0,11.6-9.7,21.2-21.4,21.3c-11.9,0.1-21.6-9.7-21.5-21.6
			C335.1,307.4,344.6,297.9,356.3,297.9z"/>
		<path d="M401.1,428.6c0,11.8-9.3,21.3-21.2,21.4c-12,0.1-21.7-9.5-21.7-21.4c0-11.8,10-21.6,21.8-21.4
			C391.8,407.3,401.1,416.8,401.1,428.6z"/>
		<path d="M374.5,394.3c-12,0.1-21.4-9.1-21.6-20.8c-0.2-12,9.2-21.8,21.1-22c11.7-0.2,21.7,9.7,21.7,21.6
			C395.7,384.8,386.3,394.3,374.5,394.3z"/>
		<path d="M396.8,571.2c0-9.3,0-18,0-26.8c0.3-0.3,0.6-0.6,0.8-0.6c13.5,0,27-0.8,40.4,0.4c9.6,0.9,14.1,5.9,13.9,14.3
			c-0.2,5.9-2.6,9.2-8.2,11.1c-0.9,0.3-1.9,0.6-2.9,0.7c-3.1,0.3-6.3,0.8-9.4,0.8C419.9,571.3,408.5,571.2,396.8,571.2z"/>
		<path d="M396.8,537.7c0-8.1,0-15.6,0-23.1c2-1.3,4.2-0.7,6.3-0.6c11.1,0.3,22.3-1.1,33.4,0.8c7.4,1.2,10.2,4.5,10.3,10.6
			c0.1,6.4-2.8,9.7-10.2,11.4c-4.6,1.1-9.3,0.9-13.9,0.9C414.2,537.7,405.8,537.7,396.8,537.7z"/>
		<path d="M15.5,571.1c0-9.3,0-18,0-27.4c3.7,0,7.1-0.1,10.5,0c10.3,0.2,20.6-0.7,30.9,0.6c6,0.7,11.3,2.9,13.2,9.6
			c2.3,8.3-1.4,14.6-9.8,16.4c-2.1,0.4-4.3,0.8-6.4,0.8C41.3,571.1,28.7,571.1,15.5,571.1z"/>
		<path d="M15.5,537.7c0-8.2,0-15.8,0-23.9c13.7,0.6,27.1-1.2,40.4,1.1c7.3,1.2,9.6,4.7,9.3,11.8c-0.2,4.6-2.4,7.5-6.5,9
			c-1.2,0.5-2.5,0.9-3.8,1.1C41.9,538.5,28.8,537.2,15.5,537.7z"/>
		<path d="M1066.9,572.5c-7.9,0-15.6-0.8-22.8-4.3c-11-5.4-15.2-14.7-15-26.5c0.2-11.6,5-20.5,15.7-25c14.2-6,28.9-6,43.3-0.3
			c11.1,4.4,15.9,13.6,16.1,25.3c0.2,11.8-3.9,21.1-15,26.6C1082.1,571.7,1074.6,572.5,1066.9,572.5z"/>
		<path d="M269.5,541c0-8.7,0-17.4,0-26.5c2.9-1.1,5.9-0.6,8.8-0.5c10.5,0.2,21-0.9,31.4,1.1c8.2,1.6,11.6,6.1,11,14
			c-0.5,6.1-3.2,9.3-9.2,10.9C305,541.7,276.8,542.4,269.5,541z"/>
		<path d="M644,541.7c0-9.3,0-18.2,0-27.8c13.5,0.5,27-1.1,40.3,1.3c7.7,1.4,10.8,5.3,10.7,12.7c0,7.4-3.1,11.1-11,12.4
			C670.9,542.6,657.6,541.3,644,541.7z"/>
		<path d="M1177.8,544.7c0-10.4,0-20.3,0-30.8c14.5,0.5,28.9-1.3,43.3,1.3c7.5,1.4,10.8,5.8,10.9,13.3c0.2,8.5-3.2,13.4-10.6,15.3
			c-2.4,0.6-4.9,0.9-7.4,1C1202.1,544.8,1190.1,544.7,1177.8,544.7z"/>
		<path d="M187,553.2c-14,0-26.9,0-40.7,0c6.8-13,13.3-25.5,20.4-39.1C173.6,527.5,180.1,539.9,187,553.2z"/>
	</g>
</g>
</svg>
